<svg xmlns="http://www.w3.org/2000/svg" data-name="Layer 1" viewBox="0 0 100 125" x="0px" y="0px"><title>99all</title><path d="M84.75,54.11c1.15-9.66,2.46-20.6-.3-26.68-4.08-11.6-16.52-20-29.63-20-16.8,0-31,13.43-31.31,29.44L14.08,61a2.5,2.5,0,0,0,2.09,3.4l7.85.75L26.88,79a2.5,2.5,0,0,0,2.62,2l11.08-.74L40.21,90a2.5,2.5,0,0,0,2.5,2.59h0l40.41-.46a2.5,2.5,0,0,0,2.46-2.74L84,72.44a60.58,60.58,0,0,1-.13-9.82C84,60.19,84.38,57.23,84.75,54.11ZM79,72.91l1.35,14.24-35.07.4.29-7.84,9.9-1.83L54.59,73,42.86,75.13l-11.53.77L28.54,62.35a2.5,2.5,0,0,0-2.21-2l-6.39-.61,8.41-21.5a2.49,2.49,0,0,0,.17-.91c0-13.51,12-24.93,26.31-24.93,11.09,0,21.58,7,24.94,16.76a2.43,2.43,0,0,0,.1.24c2.23,4.76.95,15.48-.08,24.1-.38,3.19-.74,6.21-.91,8.77A65.55,65.55,0,0,0,79,72.91Z"/><rect x="39.8" y="38.5" width="28.41" height="5" transform="translate(4.14 86.94) rotate(-79.86)"/><polygon points="61.47 33.57 67.34 41 61.47 48.43 65.39 51.53 73.72 41 65.39 30.47 61.47 33.57"/><polygon points="42.61 30.47 34.28 41 42.61 51.53 46.53 48.43 40.66 41 46.53 33.57 42.61 30.47"/><text x="0" y="115" fill="#000000" font-size="5px" font-weight="bold" font-family="'Helvetica Neue', Helvetica, Arial-Unicode, Arial, Sans-serif">Created by Lakshisha</text><text x="0" y="120" fill="#000000" font-size="5px" font-weight="bold" font-family="'Helvetica Neue', Helvetica, Arial-Unicode, Arial, Sans-serif">from the Noun Project</text></svg>